<svg id="Layer_1" data-name="Layer 1" xmlns="http://www.w3.org/2000/svg" viewBox="0 0 24 24"><defs><style>.cls-1{fill:#46bddf;}</style></defs><title>socialsvg</title><path class="cls-1" d="M12.06,5.84A6.16,6.16,0,1,0,18.23,12,6.16,6.16,0,0,0,12.06,5.84Zm0,10.16a4,4,0,1,1,4-4A4,4,0,0,1,12.06,16Z"/><path class="cls-1" d="M18.47,4.15a1.44,1.44,0,1,0,1.44,1.44A1.44,1.44,0,0,0,18.47,4.15Z"/><path class="cls-1" d="M17.29,0H6.71A6.73,6.73,0,0,0,0,6.71V17.29A6.73,6.73,0,0,0,6.71,24H17.29A6.73,6.73,0,0,0,24,17.29V6.71A6.73,6.73,0,0,0,17.29,0Zm4.54,16.85c-.15,3.22-1.66,4.77-4.92,4.92-1.26.06-1.64.07-4.85.07s-3.58,0-4.84-.07C4,21.62,2.44,20.07,2.3,16.85c-.06-1.27-.07-1.65-.07-4.85s0-3.58.07-4.85C2.45,3.92,4,2.38,7.22,2.23c1.26-.06,1.64-.07,4.84-.07s3.59,0,4.85.07c3.26.15,4.78,1.69,4.92,4.92.06,1.27.07,1.65.07,4.85S21.89,15.58,21.83,16.85Z"/></svg>